<svg xmlns="http://www.w3.org/2000/svg" viewBox="0 0 5790 740" preserveAspectRatio="xMidYMid meet" fill="currentColor">
<g transform="translate(0,740) scale(1,-1)">
<path d="M0 440 l0 -300 65 0 65 0 0 300 0 300 -65 0 -65 0 0 -300z"/>
<path d="M180 701 l0 -41 170 0 170 0 0 -90 0 -90 -106 0 -105 0 3 -37 3 -38 103 -3 102 -3 0 -89 0 -90 -170 0 -170 0 0 -41 0 -40 211 3 211 3 24 28 c22 26 24 37 24 126 0 90 -2 99 -24 120 l-24 22 24 24 c22 22 24 32 24 123 0 93 -1 100 -26 123 -25 24 -29 24 -235 27 l-209 3 0 -40z"/>
<path d="M710 440 l0 -300 65 0 65 0 0 300 0 300 -65 0 -65 0 0 -300z"/>
<path d="M945 728 c-44 -24 -45 -30 -45 -295 l0 -253 33 -20 c28 -18 50 -20 200 -20 175 0 217 8 231 45 10 27 7 495 -4 515 -5 10 -24 23 -41 29 -42 14 -347 14 -374 -1z m295 -288 l0 -220 -105 0 -105 0 0 220 0 220 105 0 105 0 0 -220z"/>
<path d="M1790 440 l0 -300 65 0 65 0 0 130 0 130 110 0 110 0 0 -130 0 -130 60 0 60 0 0 134 c0 125 -1 136 -21 150 l-21 14 21 21 c19 19 21 33 21 131 l0 110 -32 20 c-30 18 -51 20 -235 20 l-203 0 0 -300z m350 130 l0 -90 -110 0 -110 0 0 90 0 90 110 0 110 0 0 -90z"/>
<path d="M4490 440 l0 -300 201 0 200 0 -3 38 -3 37 -137 3 -138 3 0 89 0 89 138 3 137 3 3 38 3 37 -140 0 -141 0 0 90 0 89 138 3 137 3 3 38 3 37 -200 0 -201 0 0 -300z"/>
<path d="M2342 523 l3 -38 128 -3 c100 -2 127 -6 127 -16 0 -11 -25 -15 -114 -18 -155 -4 -156 -5 -156 -153 0 -155 -8 -149 216 -153 l174 -3 0 189 c0 244 16 226 -212 230 l-169 3 3 -38z m258 -228 l0 -75 -75 0 -75 0 0 75 0 75 75 0 75 0 0 -75z"/>
<path d="M2770 553 c0 -3 29 -98 66 -210 l65 -204 62 3 62 3 67 195 c37 107 67 201 67 208 1 7 -13 12 -37 12 l-38 0 -38 -117 c-62 -190 -56 -189 -110 -25 l-48 142 -59 0 c-32 0 -59 -3 -59 -7z"/>
<path d="M3245 548 c-42 -22 -45 -36 -45 -194 0 -84 3 -160 6 -169 14 -36 57 -45 219 -45 l155 0 0 40 0 40 -125 0 -125 0 0 45 0 45 94 0 c101 0 151 12 166 40 11 21 14 139 4 165 -14 35 -58 45 -196 45 -77 0 -141 -5 -153 -12z m225 -113 l0 -45 -70 0 -70 0 0 45 0 45 70 0 70 0 0 -45z"/>
<path d="M3710 547 c-44 -22 -50 -49 -50 -234 l0 -173 65 0 65 0 0 170 0 170 75 0 75 0 0 -170 0 -170 60 0 60 0 0 190 0 190 -32 20 c-29 17 -51 20 -163 20 -84 0 -139 -5 -155 -13z"/>
<path d="M4940 381 c0 -99 3 -187 6 -196 13 -32 59 -45 164 -45 l100 0 0 -30 0 -30 -125 0 -125 0 0 -41 0 -40 166 3 166 3 24 28 c24 28 24 28 24 278 l0 249 -65 0 -65 0 0 -170 0 -170 -70 0 -70 0 0 170 0 170 -65 0 -65 0 0 -179z"/>
<path d="M5435 549 c-42 -24 -45 -37 -45 -195 0 -84 3 -160 6 -169 14 -36 57 -45 219 -45 l155 0 0 40 0 40 -125 0 -125 0 0 44 0 44 111 4 c107 3 112 4 135 31 20 24 24 39 24 96 0 60 -3 70 -26 92 -24 23 -33 24 -167 27 -92 1 -149 -2 -162 -9z m225 -114 l0 -45 -70 0 -70 0 0 45 0 45 70 0 70 0 0 -45z"/>
</g>
</svg>
